<mxfile host="Electron" modified="2024-03-28T17:34:46.697Z" agent="Mozilla/5.0 (Windows NT 10.0; Win64; x64) AppleWebKit/537.36 (KHTML, like Gecko) draw.io/24.1.0 Chrome/120.0.6099.109 Electron/28.1.0 Safari/537.36" etag="8pR9OPSAVCrBwc_r-JdX" version="24.1.0" type="device">
  <diagram name="Página-1" id="-RJt9vAj4gfoUdV5gkwH">
    <mxGraphModel dx="1420" dy="830" grid="1" gridSize="10" guides="1" tooltips="1" connect="1" arrows="1" fold="1" page="1" pageScale="1" pageWidth="827" pageHeight="1169" background="#CCE5FF" math="0" shadow="0">
      <root>
        <mxCell id="0" />
        <mxCell id="1" parent="0" />
        <mxCell id="zzj-WjWx9lL40C52YzCS-1" value="&lt;p style=&quot;line-height: 109%;&quot;&gt;&lt;b style=&quot;font-size: 16px;&quot;&gt;&lt;font face=&quot;Comic Sans MS&quot; color=&quot;#000000&quot;&gt;2 Hacer un programa para ingresar por teclado dos números y luego informar por pantalla con un cartel aclaratorio si el primer número es múltiplo del segundo.&lt;/font&gt;&lt;/b&gt;&lt;/p&gt;" style="text;whiteSpace=wrap;html=1;fontFamily=Architects Daughter;fontSource=https%3A%2F%2Ffonts.googleapis.com%2Fcss%3Ffamily%3DArchitects%2BDaughter;" vertex="1" parent="1">
          <mxGeometry x="120" y="20" width="530" height="80" as="geometry" />
        </mxCell>
        <mxCell id="zzj-WjWx9lL40C52YzCS-37" value="" style="group" vertex="1" connectable="0" parent="1">
          <mxGeometry x="80" y="160" width="397" height="510" as="geometry" />
        </mxCell>
        <mxCell id="zzj-WjWx9lL40C52YzCS-2" value="" style="strokeWidth=2;html=1;shape=mxgraph.flowchart.start_2;whiteSpace=wrap;rounded=0;labelBackgroundColor=none;strokeColor=#000000;align=center;verticalAlign=middle;fontFamily=Helvetica;fontSize=12;fontColor=default;fillColor=#d5e8d4;aspect=fixed;" vertex="1" parent="zzj-WjWx9lL40C52YzCS-37">
          <mxGeometry x="270" width="40" height="40" as="geometry" />
        </mxCell>
        <mxCell id="zzj-WjWx9lL40C52YzCS-4" value="&lt;font face=&quot;Comic Sans MS&quot; color=&quot;#000000&quot;&gt;&lt;span style=&quot;font-size: 16px;&quot;&gt;&lt;b&gt;I&lt;/b&gt;&lt;/span&gt;&lt;/font&gt;" style="text;strokeColor=none;align=center;fillColor=none;html=1;verticalAlign=middle;whiteSpace=wrap;rounded=0;fontFamily=Architects Daughter;fontSource=https%3A%2F%2Ffonts.googleapis.com%2Fcss%3Ffamily%3DArchitects%2BDaughter;aspect=fixed;" vertex="1" parent="zzj-WjWx9lL40C52YzCS-37">
          <mxGeometry x="260" y="5" width="60" height="30" as="geometry" />
        </mxCell>
        <mxCell id="zzj-WjWx9lL40C52YzCS-6" value="" style="group;aspect=fixed;" vertex="1" connectable="0" parent="zzj-WjWx9lL40C52YzCS-37">
          <mxGeometry x="260" y="470" width="60" height="40" as="geometry" />
        </mxCell>
        <mxCell id="zzj-WjWx9lL40C52YzCS-3" value="" style="strokeWidth=2;html=1;shape=mxgraph.flowchart.start_2;whiteSpace=wrap;rounded=0;labelBackgroundColor=none;strokeColor=#000000;align=center;verticalAlign=middle;fontFamily=Helvetica;fontSize=12;fontColor=default;fillColor=#d5e8d4;aspect=fixed;" vertex="1" parent="zzj-WjWx9lL40C52YzCS-6">
          <mxGeometry x="10" width="40" height="40" as="geometry" />
        </mxCell>
        <mxCell id="zzj-WjWx9lL40C52YzCS-5" value="&lt;b&gt;&lt;font face=&quot;Comic Sans MS&quot; color=&quot;#000000&quot; style=&quot;font-size: 17px;&quot;&gt;F&lt;/font&gt;&lt;/b&gt;" style="text;strokeColor=none;align=center;fillColor=none;html=1;verticalAlign=middle;whiteSpace=wrap;rounded=0;fontFamily=Architects Daughter;fontSource=https%3A%2F%2Ffonts.googleapis.com%2Fcss%3Ffamily%3DArchitects%2BDaughter;aspect=fixed;" vertex="1" parent="zzj-WjWx9lL40C52YzCS-6">
          <mxGeometry y="5" width="60" height="30" as="geometry" />
        </mxCell>
        <mxCell id="zzj-WjWx9lL40C52YzCS-7" value="" style="shape=trapezoid;perimeter=trapezoidPerimeter;whiteSpace=wrap;html=1;fixedSize=1;rounded=0;labelBackgroundColor=none;strokeColor=#121211;strokeWidth=2;align=center;verticalAlign=middle;fontFamily=Helvetica;fontSize=12;fontColor=default;fillColor=#d5e8d4;direction=west;container=1;aspect=fixed;" vertex="1" parent="zzj-WjWx9lL40C52YzCS-37">
          <mxGeometry x="210" y="70" width="160" height="40" as="geometry">
            <mxRectangle x="-1020" y="-650" width="50" height="40" as="alternateBounds" />
          </mxGeometry>
        </mxCell>
        <mxCell id="zzj-WjWx9lL40C52YzCS-9" value="&lt;font face=&quot;Comic Sans MS&quot; color=&quot;#000000&quot;&gt;&lt;span style=&quot;font-size: 14px;&quot;&gt;&lt;b&gt;num1, num2&lt;/b&gt;&lt;/span&gt;&lt;/font&gt;" style="text;strokeColor=none;align=center;fillColor=none;html=1;verticalAlign=middle;whiteSpace=wrap;rounded=0;fontFamily=Architects Daughter;fontSource=https%3A%2F%2Ffonts.googleapis.com%2Fcss%3Ffamily%3DArchitects%2BDaughter;aspect=fixed;" vertex="1" parent="zzj-WjWx9lL40C52YzCS-7">
          <mxGeometry x="20" y="5" width="120" height="30" as="geometry" />
        </mxCell>
        <mxCell id="zzj-WjWx9lL40C52YzCS-30" value="" style="line;strokeWidth=2;direction=south;html=1;hachureGap=4;fontFamily=Architects Daughter;fontSource=https://fonts.googleapis.com/css?family=Architects+Daughter;strokeColor=#000000;aspect=fixed;" vertex="1" parent="zzj-WjWx9lL40C52YzCS-7">
          <mxGeometry x="75" y="-30" width="10" height="30" as="geometry" />
        </mxCell>
        <mxCell id="zzj-WjWx9lL40C52YzCS-12" value="" style="group;aspect=fixed;" vertex="1" connectable="0" parent="zzj-WjWx9lL40C52YzCS-37">
          <mxGeometry x="120" y="230" width="120" height="120" as="geometry" />
        </mxCell>
        <mxCell id="zzj-WjWx9lL40C52YzCS-10" value="" style="rhombus;whiteSpace=wrap;html=1;rounded=0;labelBackgroundColor=none;strokeColor=#0F140C;strokeWidth=2;align=center;verticalAlign=middle;fontFamily=Helvetica;fontSize=12;fontColor=default;fillColor=#d5e8d4;aspect=fixed;" vertex="1" parent="zzj-WjWx9lL40C52YzCS-12">
          <mxGeometry width="120" height="120" as="geometry" />
        </mxCell>
        <mxCell id="zzj-WjWx9lL40C52YzCS-11" value="&lt;b&gt;&lt;font face=&quot;Comic Sans MS&quot; color=&quot;#000000&quot; style=&quot;font-size: 13px;&quot;&gt;num1 % num2&lt;/font&gt;&lt;/b&gt;&lt;div&gt;&lt;b&gt;&lt;font face=&quot;Comic Sans MS&quot; color=&quot;#000000&quot; style=&quot;font-size: 13px;&quot;&gt;==&lt;/font&gt;&lt;/b&gt;&lt;/div&gt;&lt;div&gt;&lt;b&gt;&lt;font face=&quot;Comic Sans MS&quot; color=&quot;#000000&quot; style=&quot;font-size: 13px;&quot;&gt;0&lt;/font&gt;&lt;/b&gt;&lt;/div&gt;" style="text;strokeColor=none;align=center;fillColor=none;html=1;verticalAlign=middle;whiteSpace=wrap;rounded=0;fontFamily=Architects Daughter;fontSource=https%3A%2F%2Ffonts.googleapis.com%2Fcss%3Ffamily%3DArchitects%2BDaughter;aspect=fixed;" vertex="1" parent="zzj-WjWx9lL40C52YzCS-12">
          <mxGeometry x="10" y="50" width="100" height="50" as="geometry" />
        </mxCell>
        <mxCell id="zzj-WjWx9lL40C52YzCS-14" value="" style="group;aspect=fixed;" vertex="1" connectable="0" parent="zzj-WjWx9lL40C52YzCS-37">
          <mxGeometry y="340" width="130" height="40" as="geometry" />
        </mxCell>
        <mxCell id="zzj-WjWx9lL40C52YzCS-8" value="" style="shape=trapezoid;perimeter=trapezoidPerimeter;whiteSpace=wrap;html=1;fixedSize=1;rounded=0;labelBackgroundColor=none;strokeColor=#0F140C;strokeWidth=2;align=center;verticalAlign=middle;fontFamily=Helvetica;fontSize=12;fontColor=default;fillColor=#d5e8d4;aspect=fixed;" vertex="1" parent="zzj-WjWx9lL40C52YzCS-14">
          <mxGeometry width="130" height="40" as="geometry" />
        </mxCell>
        <mxCell id="zzj-WjWx9lL40C52YzCS-13" value="&lt;font face=&quot;Comic Sans MS&quot; color=&quot;#000000&quot;&gt;&lt;span style=&quot;font-size: 15px;&quot;&gt;&lt;b&gt;multiplo&lt;/b&gt;&lt;/span&gt;&lt;/font&gt;" style="text;strokeColor=none;align=center;fillColor=none;html=1;verticalAlign=middle;whiteSpace=wrap;rounded=0;fontFamily=Architects Daughter;fontSource=https%3A%2F%2Ffonts.googleapis.com%2Fcss%3Ffamily%3DArchitects%2BDaughter;aspect=fixed;" vertex="1" parent="zzj-WjWx9lL40C52YzCS-14">
          <mxGeometry x="10" y="5" width="110" height="30" as="geometry" />
        </mxCell>
        <mxCell id="zzj-WjWx9lL40C52YzCS-17" value="" style="group;aspect=fixed;" vertex="1" connectable="0" parent="zzj-WjWx9lL40C52YzCS-37">
          <mxGeometry x="240" y="140" width="100" height="90" as="geometry" />
        </mxCell>
        <mxCell id="zzj-WjWx9lL40C52YzCS-15" value="" style="rhombus;whiteSpace=wrap;html=1;rounded=0;labelBackgroundColor=none;strokeColor=#0F140C;strokeWidth=2;align=center;verticalAlign=middle;fontFamily=Helvetica;fontSize=12;fontColor=default;fillColor=#d5e8d4;aspect=fixed;" vertex="1" parent="zzj-WjWx9lL40C52YzCS-17">
          <mxGeometry width="100" height="90" as="geometry" />
        </mxCell>
        <mxCell id="zzj-WjWx9lL40C52YzCS-16" value="&lt;b&gt;&lt;font face=&quot;Comic Sans MS&quot; color=&quot;#000000&quot; style=&quot;font-size: 13px;&quot;&gt;num2 != 0&lt;/font&gt;&lt;/b&gt;" style="text;strokeColor=none;align=center;fillColor=none;html=1;verticalAlign=middle;whiteSpace=wrap;rounded=0;fontFamily=Architects Daughter;fontSource=https%3A%2F%2Ffonts.googleapis.com%2Fcss%3Ffamily%3DArchitects%2BDaughter;aspect=fixed;" vertex="1" parent="zzj-WjWx9lL40C52YzCS-17">
          <mxGeometry y="25" width="100" height="40" as="geometry" />
        </mxCell>
        <mxCell id="zzj-WjWx9lL40C52YzCS-19" value="" style="line;strokeWidth=2;direction=south;html=1;hachureGap=4;fontFamily=Architects Daughter;fontSource=https://fonts.googleapis.com/css?family=Architects+Daughter;strokeColor=#000000;aspect=fixed;" vertex="1" parent="zzj-WjWx9lL40C52YzCS-37">
          <mxGeometry x="60" y="380" width="10" height="30" as="geometry" />
        </mxCell>
        <mxCell id="zzj-WjWx9lL40C52YzCS-20" value="" style="line;strokeWidth=2;html=1;perimeter=backbonePerimeter;points=[];outlineConnect=0;hachureGap=4;fontFamily=Architects Daughter;fontSource=https://fonts.googleapis.com/css?family=Architects+Daughter;strokeColor=#000000;aspect=fixed;" vertex="1" parent="zzj-WjWx9lL40C52YzCS-37">
          <mxGeometry x="180" y="180" width="60" height="10" as="geometry" />
        </mxCell>
        <mxCell id="zzj-WjWx9lL40C52YzCS-21" value="" style="line;strokeWidth=2;html=1;perimeter=backbonePerimeter;points=[];outlineConnect=0;hachureGap=4;fontFamily=Architects Daughter;fontSource=https://fonts.googleapis.com/css?family=Architects+Daughter;strokeColor=#000000;aspect=fixed;" vertex="1" parent="zzj-WjWx9lL40C52YzCS-37">
          <mxGeometry x="62" y="286" width="60" height="10" as="geometry" />
        </mxCell>
        <mxCell id="zzj-WjWx9lL40C52YzCS-22" value="" style="line;strokeWidth=2;html=1;perimeter=backbonePerimeter;points=[];outlineConnect=0;hachureGap=4;fontFamily=Architects Daughter;fontSource=https://fonts.googleapis.com/css?family=Architects+Daughter;strokeColor=#000000;aspect=fixed;" vertex="1" parent="zzj-WjWx9lL40C52YzCS-37">
          <mxGeometry x="340" y="180" width="50" height="10" as="geometry" />
        </mxCell>
        <mxCell id="zzj-WjWx9lL40C52YzCS-23" value="" style="line;strokeWidth=2;html=1;perimeter=backbonePerimeter;points=[];outlineConnect=0;hachureGap=4;fontFamily=Architects Daughter;fontSource=https://fonts.googleapis.com/css?family=Architects+Daughter;strokeColor=#000000;aspect=fixed;" vertex="1" parent="zzj-WjWx9lL40C52YzCS-37">
          <mxGeometry x="63" y="406" width="227" height="10" as="geometry" />
        </mxCell>
        <mxCell id="zzj-WjWx9lL40C52YzCS-24" value="" style="line;strokeWidth=2;html=1;perimeter=backbonePerimeter;points=[];outlineConnect=0;hachureGap=4;fontFamily=Architects Daughter;fontSource=https://fonts.googleapis.com/css?family=Architects+Daughter;strokeColor=#000000;aspect=fixed;" vertex="1" parent="zzj-WjWx9lL40C52YzCS-37">
          <mxGeometry x="240" y="285" width="50" height="10" as="geometry" />
        </mxCell>
        <mxCell id="zzj-WjWx9lL40C52YzCS-25" value="" style="line;strokeWidth=2;direction=south;html=1;hachureGap=4;fontFamily=Architects Daughter;fontSource=https://fonts.googleapis.com/css?family=Architects+Daughter;strokeColor=#000000;aspect=fixed;" vertex="1" parent="zzj-WjWx9lL40C52YzCS-37">
          <mxGeometry x="175" y="186" width="10" height="44" as="geometry" />
        </mxCell>
        <mxCell id="zzj-WjWx9lL40C52YzCS-26" value="" style="line;strokeWidth=2;direction=south;html=1;hachureGap=4;fontFamily=Architects Daughter;fontSource=https://fonts.googleapis.com/css?family=Architects+Daughter;strokeColor=#000000;aspect=fixed;" vertex="1" parent="zzj-WjWx9lL40C52YzCS-37">
          <mxGeometry x="60" y="290" width="10" height="50" as="geometry" />
        </mxCell>
        <mxCell id="zzj-WjWx9lL40C52YzCS-28" value="" style="line;strokeWidth=2;direction=south;html=1;hachureGap=4;fontFamily=Architects Daughter;fontSource=https://fonts.googleapis.com/css?family=Architects+Daughter;strokeColor=#000000;aspect=fixed;" vertex="1" parent="zzj-WjWx9lL40C52YzCS-37">
          <mxGeometry x="285" y="290" width="10" height="120" as="geometry" />
        </mxCell>
        <mxCell id="zzj-WjWx9lL40C52YzCS-29" value="" style="line;strokeWidth=2;direction=south;html=1;hachureGap=4;fontFamily=Architects Daughter;fontSource=https://fonts.googleapis.com/css?family=Architects+Daughter;strokeColor=#000000;aspect=fixed;" vertex="1" parent="zzj-WjWx9lL40C52YzCS-37">
          <mxGeometry x="285" y="110" width="10" height="30" as="geometry" />
        </mxCell>
        <mxCell id="zzj-WjWx9lL40C52YzCS-31" value="" style="line;strokeWidth=2;html=1;perimeter=backbonePerimeter;points=[];outlineConnect=0;hachureGap=4;fontFamily=Architects Daughter;fontSource=https://fonts.googleapis.com/css?family=Architects+Daughter;strokeColor=#000000;aspect=fixed;" vertex="1" parent="zzj-WjWx9lL40C52YzCS-37">
          <mxGeometry x="174" y="436" width="216" height="10" as="geometry" />
        </mxCell>
        <mxCell id="zzj-WjWx9lL40C52YzCS-34" value="" style="line;strokeWidth=2;direction=south;html=1;hachureGap=4;fontFamily=Architects Daughter;fontSource=https://fonts.googleapis.com/css?family=Architects+Daughter;strokeColor=#000000;aspect=fixed;" vertex="1" parent="zzj-WjWx9lL40C52YzCS-37">
          <mxGeometry x="285" y="440" width="10" height="30" as="geometry" />
        </mxCell>
        <mxCell id="zzj-WjWx9lL40C52YzCS-35" value="" style="line;strokeWidth=2;direction=south;html=1;hachureGap=4;fontFamily=Architects Daughter;fontSource=https://fonts.googleapis.com/css?family=Architects+Daughter;strokeColor=#000000;aspect=fixed;" vertex="1" parent="zzj-WjWx9lL40C52YzCS-37">
          <mxGeometry x="387" y="184" width="10" height="256" as="geometry" />
        </mxCell>
        <mxCell id="zzj-WjWx9lL40C52YzCS-36" value="" style="line;strokeWidth=2;direction=south;html=1;hachureGap=4;fontFamily=Architects Daughter;fontSource=https://fonts.googleapis.com/css?family=Architects+Daughter;strokeColor=#000000;aspect=fixed;" vertex="1" parent="zzj-WjWx9lL40C52YzCS-37">
          <mxGeometry x="170" y="409" width="10" height="31" as="geometry" />
        </mxCell>
      </root>
    </mxGraphModel>
  </diagram>
</mxfile>
